<svg width="1440" height="759" viewBox="0 0 1440 759" fill="none" xmlns="http://www.w3.org/2000/svg">
<rect y="-265" width="1440" height="1024" fill="#F6FBFF"/>
<g filter="url(#filter0_b_36_112)">
<circle cx="601.5" cy="290.5" r="416.5" fill="url(#paint0_linear_36_112)" fill-opacity="0.5"/>
</g>
<circle cx="911" cy="183" r="333" fill="url(#paint1_linear_36_112)" fill-opacity="0.4"/>
<g filter="url(#filter1_b_36_112)">
<path d="M577.327 164.251C581.239 76.0204 620.039 -7.0424 685.194 -66.6647C750.348 -126.287 836.519 -157.585 924.749 -153.673L924.583 -149.929C837.346 -153.797 752.145 -122.851 687.724 -63.8999C623.303 -4.94861 584.939 77.1794 581.071 164.417L577.327 164.251Z" fill="white"/>
</g>
<circle cx="706" cy="397" r="266" fill="url(#paint2_linear_36_112)" fill-opacity="0.4" style="mix-blend-mode:hard-light"/>
<path d="M586.418 159.395C633.112 135.895 685.695 126.674 737.599 132.883C789.502 139.093 838.426 160.458 878.258 194.31C918.09 228.162 947.065 273 961.564 323.222C976.062 373.445 975.442 426.827 959.78 476.699L958.341 476.247C973.914 426.658 974.531 373.579 960.115 323.641C945.699 273.703 916.888 229.119 877.281 195.459C837.675 161.799 789.029 140.555 737.419 134.381C685.81 128.206 633.525 137.375 587.096 160.742L586.418 159.395Z" fill="white" style="mix-blend-mode:hard-light"/>
<g filter="url(#filter2_b_36_112)">
<circle cx="802" cy="178" r="119" fill="#E7E7E7" fill-opacity="0.2" style="mix-blend-mode:plus-lighter"/>
</g>
<circle cx="1137" cy="431" r="119" fill="url(#paint3_linear_36_112)" style="mix-blend-mode:hard-light"/>
<g filter="url(#filter3_b_36_112)">
<path d="M1036.16 494.179C1051.73 519.034 1075.93 537.263 1104.12 545.367C1132.31 553.472 1162.5 550.88 1188.89 538.09C1215.29 525.299 1236.03 503.212 1247.14 476.066C1258.24 448.92 1258.94 418.628 1249.08 391.004L1247.14 391.694C1256.83 418.842 1256.15 448.611 1245.24 475.288C1234.32 501.966 1213.94 523.673 1188 536.242C1162.06 548.812 1132.39 551.359 1104.69 543.394C1076.98 535.43 1053.2 517.515 1037.9 493.089L1036.16 494.179Z" fill="#F8F8F8" style="mix-blend-mode:hard-light"/>
</g>
<g filter="url(#filter4_b_36_112)">
<rect y="-265" width="1440" height="1024" fill="#F6FBFF" fill-opacity="0.5"/>
</g>
<circle cx="1112.5" cy="434.5" r="4.5" fill="#D9D9D9"/>
<g filter="url(#filter5_b_36_112)">
<path d="M234.787 434.436C252.007 486.88 279.481 535.378 315.61 577.11C351.739 618.843 395.804 652.978 445.242 677.53C494.68 702.083 548.505 716.563 603.589 720.13C658.672 723.696 713.916 716.278 766.107 698.306C818.298 680.334 866.397 652.166 907.606 615.441C948.815 578.716 982.314 534.166 1006.15 484.38C1029.99 434.595 1043.7 380.567 1046.47 325.438C1049.25 270.308 1041.04 215.177 1022.32 163.249L1019.91 164.116C1038.52 215.725 1046.68 270.518 1043.92 325.309C1041.16 380.1 1027.54 433.797 1003.85 483.277C980.156 532.758 946.864 577.035 905.907 613.535C864.95 650.035 817.147 678.029 765.276 695.891C713.404 713.753 658.5 721.126 603.754 717.581C549.008 714.036 495.512 699.645 446.378 675.243C397.243 650.841 353.448 616.916 317.541 575.439C281.633 533.962 254.328 485.761 237.213 433.639L234.787 434.436Z" fill="white"/>
</g>
<g filter="url(#filter6_dd_36_112)">
<rect x="336" y="422" width="45" height="45" rx="22.5" fill="#F6FBFF"/>
</g>
<g filter="url(#filter7_ii_36_112)">
<rect x="343.962" y="429.962" width="29.0769" height="29.0769" rx="14.5385" fill="#F6FBFF"/>
</g>
<g filter="url(#filter8_dd_36_112)">
<rect x="586" y="508" width="90" height="90" rx="45" fill="#F6FBFF"/>
</g>
<g filter="url(#filter9_ii_36_112)">
<rect x="601.923" y="523.923" width="58.1538" height="58.1538" rx="29.0769" fill="#F6FBFF"/>
</g>
<g filter="url(#filter10_ii_36_112)">
<rect x="1106" y="378" width="130" height="130" rx="65" fill="#F6FBFF"/>
</g>
<g filter="url(#filter11_ii_36_112)">
<rect x="762" y="114" width="130" height="130" rx="65" fill="#F6FBFF"/>
</g>
<path d="M1137 243L221.5 243M1136 244.5C891 244.5 411.2 293.8 292 81M1133 242C1132.61 242.002 1132.22 242.005 1131.83 242.008M1133 242C1123.03 242.522 1112.59 242.678 1101.77 242.508M1133 242C1132.64 242.001 1132.28 242.001 1131.92 242.002M1133 242C1130.39 242.016 1127.77 242.031 1125.14 242.044M1133 242L1112.64 242.261M1133 242C1125.54 242.133 1117.4 242.244 1108.68 242.342M1131.83 242.008C1125.49 242.052 1119.1 242.136 1112.64 242.261M1131.83 242.008L1123.01 242.066M1112.64 242.261C1111.32 242.286 1110 242.314 1108.68 242.342M1112.64 242.261L1107.33 242.329M1108.68 242.342C1106.38 242.393 1104.08 242.448 1101.77 242.508M1108.68 242.342C1107.41 242.357 1106.14 242.371 1104.85 242.384M1101.77 242.508C972.882 245.874 825.263 265.108 744.5 301C723.347 310.401 701.295 316.522 679.179 319.759M1101.77 242.508C1101.36 242.502 1100.96 242.495 1100.55 242.488M679.179 319.759C674.574 320.434 669.965 320.983 665.362 321.411M679.179 319.759C690.649 302.903 709.272 278.264 731.101 263.088M679.179 319.759C678.049 321.421 676.988 323.006 676 324.5C659.6 349.3 637.333 367.667 627.5 374C613.555 382.982 592.457 386.833 571.849 375.196M665.362 321.411C627.933 324.888 590.822 320.337 558.087 309.68M665.362 321.411C684.393 299.296 703.17 276.256 717.337 264.104M665.362 321.411C641.168 349.525 616.563 376.146 600.5 377C590.018 377.558 580.68 377.021 571.849 375.196M558.087 309.68C543.516 304.937 529.812 298.984 517.333 291.992M558.087 309.68C592.995 295.674 624.613 283.441 643.5 272C643.68 271.891 643.867 271.782 644.06 271.673M558.087 309.68C547.224 314.039 536.043 318.569 524.828 323.3M517.333 291.992C513.264 289.712 509.326 287.321 505.53 284.826M517.333 291.992C564.948 286.424 610.572 277.248 644.06 271.673M517.333 291.992C504.908 293.445 492.347 294.652 479.831 295.485M505.53 284.826C492.03 275.953 480.334 265.756 471 254.5M505.53 284.826C558.402 264.096 609.976 250.703 622.5 249.5C628.882 248.887 645.18 248.247 668.562 247.611M505.53 284.826C496.944 288.193 488.324 291.753 479.831 295.485M1100.55 242.488C1099.89 242.476 1099.22 242.463 1098.55 242.448M1100.55 242.488C1102 242.451 1103.43 242.417 1104.85 242.384M1100.55 242.488C1002.87 244.94 827.415 256.067 731.101 263.088M1098.55 242.448C1098.49 242.447 1098.42 242.445 1098.35 242.444M1098.55 242.448C1100.68 242.428 1102.78 242.406 1104.85 242.384M1098.55 242.448C1097.83 242.455 1097.1 242.462 1096.37 242.469M1098.35 242.444C1096.23 242.398 1094.1 242.34 1091.96 242.269M1098.35 242.444L1107.33 242.329M1098.35 242.444L1096.37 242.469M1091.96 242.269C1090.86 242.233 1089.76 242.194 1088.65 242.152M1091.96 242.269L1123.01 242.066M1091.96 242.269L948.953 243.208M1088.65 242.152C1088.64 242.152 1088.62 242.151 1088.61 242.151M1088.65 242.152C1088.82 242.151 1088.99 242.151 1089.16 242.15M1088.65 242.152C1045.76 242.355 997.619 242.723 948.953 243.208M1088.61 242.151C976.694 237.878 831.77 202.18 768.5 177.5C698 150 628 109.333 588 110C567.362 110.344 528.608 119.84 487.633 135.805M1088.61 242.151C1088.79 242.15 1088.98 242.15 1089.16 242.15M1088.61 242.151C1025.71 242.239 957.513 242.001 891.5 243.585M487.633 135.805C480.225 138.692 472.744 141.79 465.285 145.083M487.633 135.805C521.814 172.447 589.221 211.634 640.338 234.086M487.633 135.805C483.599 131.481 480.027 127.192 477 122.969C443.172 75.7884 373.683 32.594 316.152 67.0639M465.285 145.083C458.215 148.205 451.165 151.502 444.214 154.961M465.285 145.083C474.584 147.851 484.402 153.757 495 163.5C504.531 172.263 522.447 185.881 544.566 199.638M465.285 145.083C453.361 141.534 442.291 143.145 431.527 148.441M444.214 154.961C427.162 163.447 410.707 172.909 396.028 183.147M444.214 154.961C476.722 171.351 511.274 186.427 544.566 199.638M444.214 154.961C439.947 152.81 435.716 150.636 431.527 148.441M396.028 183.147C380.086 194.267 366.24 206.303 356 219C314.905 269.958 306.228 250.794 298.561 242.867M396.028 183.147C403.679 173.918 410.524 165.468 415.5 159C420.811 154.678 426.131 151.096 431.527 148.441M396.028 183.147C370.363 214.107 335.632 253.842 332 257C328.193 260.311 322.906 262.635 317.192 263.319M298.561 242.867C297.547 241.819 296.551 240.967 295.5 240.5M298.561 242.867C303.81 250.676 310.072 257.457 317.192 263.319M298.561 242.867C297.499 241.287 296.478 239.665 295.5 238M1131.92 242.002C1118.44 242.03 1104.12 242.08 1089.16 242.15M1131.92 242.002C1129.74 242.008 1127.47 242.022 1125.14 242.044M1089.16 242.15C1101.37 242.132 1113.38 242.102 1125.14 242.044M948.953 243.208C924.058 243.456 899.024 243.735 874.484 244.037M948.953 243.208L891.5 243.585M874.484 244.037C795.929 245.004 722.436 246.215 674.727 247.448M874.484 244.037C880.137 243.872 885.811 243.722 891.5 243.585M874.484 244.037C857.584 244.53 840.871 245.157 824.474 245.953M674.727 247.448C672.621 247.502 670.565 247.557 668.562 247.611M674.727 247.448C675.154 247.586 675.579 247.722 676 247.856M674.727 247.448C664.783 244.23 653.065 239.677 640.338 234.086M668.562 247.611C671.07 247.773 673.551 247.856 676 247.856M668.562 247.611C628.177 245.013 580.747 222.14 544.566 199.638M479.831 295.485C476.505 296.947 473.198 298.436 469.921 299.949M479.831 295.485C474.996 295.807 470.168 296.074 465.357 296.277M469.921 299.949C467.059 301.271 464.219 302.612 461.408 303.972M469.921 299.949C470.283 300.289 470.643 300.64 471 301C472.307 302.318 473.597 303.617 474.87 304.896M469.921 299.949C468.44 298.559 466.917 297.337 465.357 296.277M461.408 303.972C423.768 322.176 391.288 343.684 379.5 366.5C367.3 390.113 329.906 419.715 306.328 432.387M461.408 303.972C465.83 304.094 470.341 304.389 474.87 304.896M461.408 303.972C445.437 303.529 430.645 305.33 420.5 307.5C406 314.333 392 331.5 366.5 366.5C355.67 381.365 339.673 394.867 323.978 404.503M306.328 432.387C299.951 435.814 253.584 453.503 250 454M306.328 432.387C311.696 423.479 317.626 414.068 323.978 404.503M306.328 432.387C302.399 438.907 271.271 480.157 268 486M524.828 323.3C517.649 326.329 510.456 329.44 503.323 332.642M524.828 323.3C530.798 328.068 535.976 333.902 540 341C549.663 358.042 560.684 368.892 571.849 375.196M524.828 323.3C510.944 312.213 492.775 306.898 474.87 304.896M503.323 332.642C458.817 352.618 416.668 376.109 395 405C351.59 462.88 315 507.167 292 517M503.323 332.642C529.972 357.426 549.254 370.527 571.849 375.196M503.323 332.642C494.725 324.645 485.36 315.433 474.87 304.896M1125.14 242.044C1124.43 242.05 1123.72 242.058 1123.01 242.066M891.5 243.585L676 245C665.453 241.972 653.441 238.313 640.338 234.086M824.474 245.953C805.318 246.884 786.592 248.047 768.5 249.5M824.474 245.953L860.978 245.486M824.474 245.953L676 247.856M768.5 249.5C765.798 249.717 763.097 249.946 760.402 250.187M768.5 249.5C765.785 249.5 763.084 249.737 760.402 250.187M760.402 250.187C708.086 254.858 657.972 263.828 644.06 271.673M760.402 250.187C757.72 250.637 755.058 251.299 752.42 252.149M644.06 271.673C651.715 270.398 658.735 269.312 665 268.5C670.689 267.762 689.744 266.166 717.337 264.104M752.42 252.149C745.08 254.516 737.934 258.338 731.101 263.088M752.42 252.149C777.763 248.853 816.694 246.806 860.978 245.486M752.42 252.149C738.145 254.006 728.181 256.258 724 259C721.92 260.364 719.692 262.084 717.337 264.104M731.101 263.088C726.311 263.438 721.716 263.777 717.337 264.104M323.978 404.503C312.429 411.594 258 438.497 218 405M323.978 404.503C353.485 360.075 392.092 312.33 425.686 296.34M1107.33 242.329C1112.84 242.209 1118.08 242.121 1123.01 242.066M1107.33 242.329C1106.51 242.347 1105.68 242.365 1104.85 242.384M1096.37 242.469L860.978 245.486M1096.37 242.469C1030.34 243.095 937.638 243.2 860.978 245.486M640.338 234.086C612.218 225.016 579.068 213.329 544.566 199.638M316.152 67.0639C282 94 273.5 112 250.5 148.441M316.152 67.0639C341.763 95.7352 383.884 123.472 431.527 148.441M316.152 67.0639C306.984 56.801 299.932 46.4184 295.5 36.0001M317.192 263.319C305.646 264.703 261 276 237.5 215M317.192 263.319C343.96 285.361 382.857 294.427 425.686 296.34M465.357 296.277C453.837 288.447 440.231 289.417 425.686 296.34M465.357 296.277C451.925 296.844 438.626 296.918 425.686 296.34" stroke="white" stroke-opacity="0.75" stroke-width="3"/>
<circle cx="590.5" cy="110.5" r="3.5" transform="rotate(-180 590.5 110.5)" fill="#D9D9D9"/>
<circle cx="754.5" cy="252.5" r="3.5" transform="rotate(-180 754.5 252.5)" fill="#D9D9D9"/>
<circle cx="724.5" cy="259.5" r="3.5" transform="rotate(-180 724.5 259.5)" fill="#D9D9D9"/>
<circle cx="675.5" cy="310.5" r="3.5" transform="rotate(-180 675.5 310.5)" fill="#D9D9D9"/>
<circle cx="613.5" cy="378.5" r="3.5" transform="rotate(-180 613.5 378.5)" fill="#D9D9D9"/>
<circle cx="581.5" cy="381.5" r="3.5" transform="rotate(-180 581.5 381.5)" fill="#D9D9D9"/>
<circle cx="408.5" cy="390.5" r="3.5" transform="rotate(-180 408.5 390.5)" fill="#D9D9D9"/>
<circle cx="384.5" cy="358.5" r="3.5" transform="rotate(-180 384.5 358.5)" fill="#D9D9D9"/>
<circle cx="420.5" cy="308.5" r="3.5" transform="rotate(-180 420.5 308.5)" fill="#D9D9D9"/>
<circle cx="450.5" cy="291.5" r="3.5" transform="rotate(-180 450.5 291.5)" fill="#D9D9D9"/>
<circle cx="291.5" cy="516.5" r="3.5" transform="rotate(-180 291.5 516.5)" fill="#D9D9D9"/>
<circle cx="269.5" cy="485.5" r="3.5" transform="rotate(-180 269.5 485.5)" fill="#D9D9D9"/>
<circle cx="250.5" cy="454.5" r="3.5" transform="rotate(-180 250.5 454.5)" fill="#D9D9D9"/>
<circle cx="221.5" cy="406.5" r="3.5" transform="rotate(-180 221.5 406.5)" fill="#D9D9D9"/>
<circle cx="381.5" cy="291.5" r="3.5" transform="rotate(-180 381.5 291.5)" fill="#D9D9D9"/>
<circle cx="237.5" cy="214.5" r="3.5" transform="rotate(-180 237.5 214.5)" fill="#D9D9D9"/>
<circle cx="221.5" cy="243.5" r="3.5" transform="rotate(-180 221.5 243.5)" fill="#D9D9D9"/>
<circle cx="470.5" cy="254.5" r="3.5" transform="rotate(-180 470.5 254.5)" fill="#D9D9D9"/>
<circle cx="491.5" cy="159.5" r="3.5" transform="rotate(-180 491.5 159.5)" fill="#D9D9D9"/>
<circle cx="637.5" cy="276.5" r="3.5" transform="rotate(-180 637.5 276.5)" fill="#D9D9D9"/>
<circle cx="648.5" cy="269.5" r="3.5" transform="rotate(-180 648.5 269.5)" fill="#D9D9D9"/>
<circle cx="470.5" cy="114.5" r="3.5" transform="rotate(-180 470.5 114.5)" fill="#D9D9D9"/>
<circle cx="360.5" cy="55.5" r="3.5" transform="rotate(-180 360.5 55.5)" fill="#D9D9D9"/>
<circle cx="676.5" cy="242.5" r="3.5" transform="rotate(-180 676.5 242.5)" fill="#D9D9D9"/>
<circle cx="291.5" cy="79.5" r="3.5" transform="rotate(-180 291.5 79.5)" fill="#D9D9D9"/>
<circle cx="251.5" cy="149.5" r="3.5" transform="rotate(-180 251.5 149.5)" fill="#D9D9D9"/>
<circle cx="295.5" cy="35.5001" r="3.5" transform="rotate(-180 295.5 35.5001)" fill="#D9D9D9"/>
<circle cx="296.5" cy="239.5" r="3.5" transform="rotate(-180 296.5 239.5)" fill="#D9D9D9"/>
<circle cx="400.5" cy="178.5" r="3.5" transform="rotate(-180 400.5 178.5)" fill="#D9D9D9"/>
<circle cx="731.5" cy="305.5" r="3.5" transform="rotate(-180 731.5 305.5)" fill="#D9D9D9"/>
<circle cx="1141.5" cy="515.5" r="4.5" fill="#D9D9D9"/>
<g filter="url(#filter12_dd_36_112)">
<rect x="689" y="192" width="25" height="25" rx="12.5" fill="#F6FBFF"/>
</g>
<g filter="url(#filter13_dd_36_112)">
<rect x="1151" y="142" width="16" height="16" rx="8" fill="#F6FBFF"/>
</g>
<g filter="url(#filter14_dd_36_112)">
<rect x="1423" y="125" width="16" height="16" rx="8" fill="#F6FBFF"/>
</g>
<g filter="url(#filter15_dd_36_112)">
<rect x="1400" y="385" width="16" height="16" rx="8" fill="#F6FBFF"/>
</g>
<g filter="url(#filter16_d_36_112)">
<path d="M1197.28 132.156L1233.95 147.104C1234.78 147.442 1234.78 148.614 1233.96 148.955L1218.49 155.324L1210.79 170.171C1210.37 170.965 1209.21 170.86 1208.94 170.005L1197.28 132.156Z" fill="#EDEDED"/>
<path d="M1200.65 135.844L1228.29 146.87C1229.12 147.202 1229.13 148.376 1228.31 148.722L1216.84 153.524L1211.05 164.522C1210.63 165.314 1209.47 165.201 1209.21 164.344L1200.65 135.844Z" fill="black"/>
</g>
<defs>
<filter id="filter0_b_36_112" x="181" y="-130" width="841" height="841" filterUnits="userSpaceOnUse" color-interpolation-filters="sRGB">
<feFlood flood-opacity="0" result="BackgroundImageFix"/>
<feGaussianBlur in="BackgroundImageFix" stdDeviation="2"/>
<feComposite in2="SourceAlpha" operator="in" result="effect1_backgroundBlur_36_112"/>
<feBlend mode="normal" in="SourceGraphic" in2="effect1_backgroundBlur_36_112" result="shape"/>
</filter>
<filter id="filter1_b_36_112" x="573.327" y="-158" width="355.422" height="326.417" filterUnits="userSpaceOnUse" color-interpolation-filters="sRGB">
<feFlood flood-opacity="0" result="BackgroundImageFix"/>
<feGaussianBlur in="BackgroundImageFix" stdDeviation="2"/>
<feComposite in2="SourceAlpha" operator="in" result="effect1_backgroundBlur_36_112"/>
<feBlend mode="normal" in="SourceGraphic" in2="effect1_backgroundBlur_36_112" result="shape"/>
</filter>
<filter id="filter2_b_36_112" x="679" y="55" width="246" height="246" filterUnits="userSpaceOnUse" color-interpolation-filters="sRGB">
<feFlood flood-opacity="0" result="BackgroundImageFix"/>
<feGaussianBlur in="BackgroundImageFix" stdDeviation="2"/>
<feComposite in2="SourceAlpha" operator="in" result="effect1_backgroundBlur_36_112"/>
<feBlend mode="normal" in="SourceGraphic" in2="effect1_backgroundBlur_36_112" result="shape"/>
</filter>
<filter id="filter3_b_36_112" x="1032.16" y="387.004" width="227.844" height="166.996" filterUnits="userSpaceOnUse" color-interpolation-filters="sRGB">
<feFlood flood-opacity="0" result="BackgroundImageFix"/>
<feGaussianBlur in="BackgroundImageFix" stdDeviation="2"/>
<feComposite in2="SourceAlpha" operator="in" result="effect1_backgroundBlur_36_112"/>
<feBlend mode="normal" in="SourceGraphic" in2="effect1_backgroundBlur_36_112" result="shape"/>
</filter>
<filter id="filter4_b_36_112" x="-20" y="-285" width="1480" height="1064" filterUnits="userSpaceOnUse" color-interpolation-filters="sRGB">
<feFlood flood-opacity="0" result="BackgroundImageFix"/>
<feGaussianBlur in="BackgroundImageFix" stdDeviation="10"/>
<feComposite in2="SourceAlpha" operator="in" result="effect1_backgroundBlur_36_112"/>
<feBlend mode="normal" in="SourceGraphic" in2="effect1_backgroundBlur_36_112" result="shape"/>
</filter>
<filter id="filter5_b_36_112" x="230.787" y="159.249" width="820.213" height="565.751" filterUnits="userSpaceOnUse" color-interpolation-filters="sRGB">
<feFlood flood-opacity="0" result="BackgroundImageFix"/>
<feGaussianBlur in="BackgroundImageFix" stdDeviation="2"/>
<feComposite in2="SourceAlpha" operator="in" result="effect1_backgroundBlur_36_112"/>
<feBlend mode="normal" in="SourceGraphic" in2="effect1_backgroundBlur_36_112" result="shape"/>
</filter>
<filter id="filter6_dd_36_112" x="306" y="392" width="105" height="105" filterUnits="userSpaceOnUse" color-interpolation-filters="sRGB">
<feFlood flood-opacity="0" result="BackgroundImageFix"/>
<feColorMatrix in="SourceAlpha" type="matrix" values="0 0 0 0 0 0 0 0 0 0 0 0 0 0 0 0 0 0 127 0" result="hardAlpha"/>
<feOffset dx="10" dy="10"/>
<feGaussianBlur stdDeviation="10"/>
<feComposite in2="hardAlpha" operator="out"/>
<feColorMatrix type="matrix" values="0 0 0 0 0 0 0 0 0 0 0 0 0 0 0 0 0 0 0.25 0"/>
<feBlend mode="normal" in2="BackgroundImageFix" result="effect1_dropShadow_36_112"/>
<feColorMatrix in="SourceAlpha" type="matrix" values="0 0 0 0 0 0 0 0 0 0 0 0 0 0 0 0 0 0 127 0" result="hardAlpha"/>
<feOffset dx="-10" dy="-10"/>
<feGaussianBlur stdDeviation="10"/>
<feComposite in2="hardAlpha" operator="out"/>
<feColorMatrix type="matrix" values="0 0 0 0 1 0 0 0 0 1 0 0 0 0 1 0 0 0 1 0"/>
<feBlend mode="normal" in2="effect1_dropShadow_36_112" result="effect2_dropShadow_36_112"/>
<feBlend mode="normal" in="SourceGraphic" in2="effect2_dropShadow_36_112" result="shape"/>
</filter>
<filter id="filter7_ii_36_112" x="333.962" y="419.962" width="49.0771" height="49.0769" filterUnits="userSpaceOnUse" color-interpolation-filters="sRGB">
<feFlood flood-opacity="0" result="BackgroundImageFix"/>
<feBlend mode="normal" in="SourceGraphic" in2="BackgroundImageFix" result="shape"/>
<feColorMatrix in="SourceAlpha" type="matrix" values="0 0 0 0 0 0 0 0 0 0 0 0 0 0 0 0 0 0 127 0" result="hardAlpha"/>
<feOffset dx="10" dy="10"/>
<feGaussianBlur stdDeviation="10"/>
<feComposite in2="hardAlpha" operator="arithmetic" k2="-1" k3="1"/>
<feColorMatrix type="matrix" values="0 0 0 0 0 0 0 0 0 0 0 0 0 0 0 0 0 0 0.25 0"/>
<feBlend mode="normal" in2="shape" result="effect1_innerShadow_36_112"/>
<feColorMatrix in="SourceAlpha" type="matrix" values="0 0 0 0 0 0 0 0 0 0 0 0 0 0 0 0 0 0 127 0" result="hardAlpha"/>
<feOffset dx="-10" dy="-10"/>
<feGaussianBlur stdDeviation="10"/>
<feComposite in2="hardAlpha" operator="arithmetic" k2="-1" k3="1"/>
<feColorMatrix type="matrix" values="0 0 0 0 1 0 0 0 0 1 0 0 0 0 1 0 0 0 1 0"/>
<feBlend mode="normal" in2="effect1_innerShadow_36_112" result="effect2_innerShadow_36_112"/>
</filter>
<filter id="filter8_dd_36_112" x="556" y="478" width="150" height="150" filterUnits="userSpaceOnUse" color-interpolation-filters="sRGB">
<feFlood flood-opacity="0" result="BackgroundImageFix"/>
<feColorMatrix in="SourceAlpha" type="matrix" values="0 0 0 0 0 0 0 0 0 0 0 0 0 0 0 0 0 0 127 0" result="hardAlpha"/>
<feOffset dx="10" dy="10"/>
<feGaussianBlur stdDeviation="10"/>
<feComposite in2="hardAlpha" operator="out"/>
<feColorMatrix type="matrix" values="0 0 0 0 0 0 0 0 0 0 0 0 0 0 0 0 0 0 0.25 0"/>
<feBlend mode="normal" in2="BackgroundImageFix" result="effect1_dropShadow_36_112"/>
<feColorMatrix in="SourceAlpha" type="matrix" values="0 0 0 0 0 0 0 0 0 0 0 0 0 0 0 0 0 0 127 0" result="hardAlpha"/>
<feOffset dx="-10" dy="-10"/>
<feGaussianBlur stdDeviation="10"/>
<feComposite in2="hardAlpha" operator="out"/>
<feColorMatrix type="matrix" values="0 0 0 0 1 0 0 0 0 1 0 0 0 0 1 0 0 0 1 0"/>
<feBlend mode="normal" in2="effect1_dropShadow_36_112" result="effect2_dropShadow_36_112"/>
<feBlend mode="normal" in="SourceGraphic" in2="effect2_dropShadow_36_112" result="shape"/>
</filter>
<filter id="filter9_ii_36_112" x="591.923" y="513.923" width="78.1538" height="78.1539" filterUnits="userSpaceOnUse" color-interpolation-filters="sRGB">
<feFlood flood-opacity="0" result="BackgroundImageFix"/>
<feBlend mode="normal" in="SourceGraphic" in2="BackgroundImageFix" result="shape"/>
<feColorMatrix in="SourceAlpha" type="matrix" values="0 0 0 0 0 0 0 0 0 0 0 0 0 0 0 0 0 0 127 0" result="hardAlpha"/>
<feOffset dx="10" dy="10"/>
<feGaussianBlur stdDeviation="10"/>
<feComposite in2="hardAlpha" operator="arithmetic" k2="-1" k3="1"/>
<feColorMatrix type="matrix" values="0 0 0 0 0 0 0 0 0 0 0 0 0 0 0 0 0 0 0.25 0"/>
<feBlend mode="normal" in2="shape" result="effect1_innerShadow_36_112"/>
<feColorMatrix in="SourceAlpha" type="matrix" values="0 0 0 0 0 0 0 0 0 0 0 0 0 0 0 0 0 0 127 0" result="hardAlpha"/>
<feOffset dx="-10" dy="-10"/>
<feGaussianBlur stdDeviation="10"/>
<feComposite in2="hardAlpha" operator="arithmetic" k2="-1" k3="1"/>
<feColorMatrix type="matrix" values="0 0 0 0 1 0 0 0 0 1 0 0 0 0 1 0 0 0 1 0"/>
<feBlend mode="normal" in2="effect1_innerShadow_36_112" result="effect2_innerShadow_36_112"/>
</filter>
<filter id="filter10_ii_36_112" x="1101" y="373" width="140" height="140" filterUnits="userSpaceOnUse" color-interpolation-filters="sRGB">
<feFlood flood-opacity="0" result="BackgroundImageFix"/>
<feBlend mode="normal" in="SourceGraphic" in2="BackgroundImageFix" result="shape"/>
<feColorMatrix in="SourceAlpha" type="matrix" values="0 0 0 0 0 0 0 0 0 0 0 0 0 0 0 0 0 0 127 0" result="hardAlpha"/>
<feOffset dx="5" dy="5"/>
<feGaussianBlur stdDeviation="5"/>
<feComposite in2="hardAlpha" operator="arithmetic" k2="-1" k3="1"/>
<feColorMatrix type="matrix" values="0 0 0 0 0 0 0 0 0 0 0 0 0 0 0 0 0 0 0.25 0"/>
<feBlend mode="normal" in2="shape" result="effect1_innerShadow_36_112"/>
<feColorMatrix in="SourceAlpha" type="matrix" values="0 0 0 0 0 0 0 0 0 0 0 0 0 0 0 0 0 0 127 0" result="hardAlpha"/>
<feOffset dx="-5" dy="-5"/>
<feGaussianBlur stdDeviation="10"/>
<feComposite in2="hardAlpha" operator="arithmetic" k2="-1" k3="1"/>
<feColorMatrix type="matrix" values="0 0 0 0 1 0 0 0 0 1 0 0 0 0 1 0 0 0 1 0"/>
<feBlend mode="normal" in2="effect1_innerShadow_36_112" result="effect2_innerShadow_36_112"/>
</filter>
<filter id="filter11_ii_36_112" x="757" y="109" width="140" height="140" filterUnits="userSpaceOnUse" color-interpolation-filters="sRGB">
<feFlood flood-opacity="0" result="BackgroundImageFix"/>
<feBlend mode="normal" in="SourceGraphic" in2="BackgroundImageFix" result="shape"/>
<feColorMatrix in="SourceAlpha" type="matrix" values="0 0 0 0 0 0 0 0 0 0 0 0 0 0 0 0 0 0 127 0" result="hardAlpha"/>
<feOffset dx="5" dy="5"/>
<feGaussianBlur stdDeviation="5"/>
<feComposite in2="hardAlpha" operator="arithmetic" k2="-1" k3="1"/>
<feColorMatrix type="matrix" values="0 0 0 0 0 0 0 0 0 0 0 0 0 0 0 0 0 0 0.25 0"/>
<feBlend mode="normal" in2="shape" result="effect1_innerShadow_36_112"/>
<feColorMatrix in="SourceAlpha" type="matrix" values="0 0 0 0 0 0 0 0 0 0 0 0 0 0 0 0 0 0 127 0" result="hardAlpha"/>
<feOffset dx="-5" dy="-5"/>
<feGaussianBlur stdDeviation="10"/>
<feComposite in2="hardAlpha" operator="arithmetic" k2="-1" k3="1"/>
<feColorMatrix type="matrix" values="0 0 0 0 1 0 0 0 0 1 0 0 0 0 1 0 0 0 1 0"/>
<feBlend mode="normal" in2="effect1_innerShadow_36_112" result="effect2_innerShadow_36_112"/>
</filter>
<filter id="filter12_dd_36_112" x="659" y="162" width="85" height="85" filterUnits="userSpaceOnUse" color-interpolation-filters="sRGB">
<feFlood flood-opacity="0" result="BackgroundImageFix"/>
<feColorMatrix in="SourceAlpha" type="matrix" values="0 0 0 0 0 0 0 0 0 0 0 0 0 0 0 0 0 0 127 0" result="hardAlpha"/>
<feOffset dx="10" dy="10"/>
<feGaussianBlur stdDeviation="10"/>
<feComposite in2="hardAlpha" operator="out"/>
<feColorMatrix type="matrix" values="0 0 0 0 0 0 0 0 0 0 0 0 0 0 0 0 0 0 0.25 0"/>
<feBlend mode="normal" in2="BackgroundImageFix" result="effect1_dropShadow_36_112"/>
<feColorMatrix in="SourceAlpha" type="matrix" values="0 0 0 0 0 0 0 0 0 0 0 0 0 0 0 0 0 0 127 0" result="hardAlpha"/>
<feOffset dx="-10" dy="-10"/>
<feGaussianBlur stdDeviation="10"/>
<feComposite in2="hardAlpha" operator="out"/>
<feColorMatrix type="matrix" values="0 0 0 0 1 0 0 0 0 1 0 0 0 0 1 0 0 0 1 0"/>
<feBlend mode="normal" in2="effect1_dropShadow_36_112" result="effect2_dropShadow_36_112"/>
<feBlend mode="normal" in="SourceGraphic" in2="effect2_dropShadow_36_112" result="shape"/>
</filter>
<filter id="filter13_dd_36_112" x="1121" y="112" width="76" height="76" filterUnits="userSpaceOnUse" color-interpolation-filters="sRGB">
<feFlood flood-opacity="0" result="BackgroundImageFix"/>
<feColorMatrix in="SourceAlpha" type="matrix" values="0 0 0 0 0 0 0 0 0 0 0 0 0 0 0 0 0 0 127 0" result="hardAlpha"/>
<feOffset dx="10" dy="10"/>
<feGaussianBlur stdDeviation="10"/>
<feComposite in2="hardAlpha" operator="out"/>
<feColorMatrix type="matrix" values="0 0 0 0 0.176471 0 0 0 0 0.121569 0 0 0 0 0.388235 0 0 0 1 0"/>
<feBlend mode="normal" in2="BackgroundImageFix" result="effect1_dropShadow_36_112"/>
<feColorMatrix in="SourceAlpha" type="matrix" values="0 0 0 0 0 0 0 0 0 0 0 0 0 0 0 0 0 0 127 0" result="hardAlpha"/>
<feOffset dx="-10" dy="-10"/>
<feGaussianBlur stdDeviation="10"/>
<feComposite in2="hardAlpha" operator="out"/>
<feColorMatrix type="matrix" values="0 0 0 0 1 0 0 0 0 1 0 0 0 0 1 0 0 0 1 0"/>
<feBlend mode="normal" in2="effect1_dropShadow_36_112" result="effect2_dropShadow_36_112"/>
<feBlend mode="normal" in="SourceGraphic" in2="effect2_dropShadow_36_112" result="shape"/>
</filter>
<filter id="filter14_dd_36_112" x="1393" y="95" width="76" height="76" filterUnits="userSpaceOnUse" color-interpolation-filters="sRGB">
<feFlood flood-opacity="0" result="BackgroundImageFix"/>
<feColorMatrix in="SourceAlpha" type="matrix" values="0 0 0 0 0 0 0 0 0 0 0 0 0 0 0 0 0 0 127 0" result="hardAlpha"/>
<feOffset dx="10" dy="10"/>
<feGaussianBlur stdDeviation="10"/>
<feComposite in2="hardAlpha" operator="out"/>
<feColorMatrix type="matrix" values="0 0 0 0 0 0 0 0 0 0 0 0 0 0 0 0 0 0 0.25 0"/>
<feBlend mode="normal" in2="BackgroundImageFix" result="effect1_dropShadow_36_112"/>
<feColorMatrix in="SourceAlpha" type="matrix" values="0 0 0 0 0 0 0 0 0 0 0 0 0 0 0 0 0 0 127 0" result="hardAlpha"/>
<feOffset dx="-10" dy="-10"/>
<feGaussianBlur stdDeviation="10"/>
<feComposite in2="hardAlpha" operator="out"/>
<feColorMatrix type="matrix" values="0 0 0 0 1 0 0 0 0 1 0 0 0 0 1 0 0 0 1 0"/>
<feBlend mode="normal" in2="effect1_dropShadow_36_112" result="effect2_dropShadow_36_112"/>
<feBlend mode="normal" in="SourceGraphic" in2="effect2_dropShadow_36_112" result="shape"/>
</filter>
<filter id="filter15_dd_36_112" x="1370" y="355" width="76" height="76" filterUnits="userSpaceOnUse" color-interpolation-filters="sRGB">
<feFlood flood-opacity="0" result="BackgroundImageFix"/>
<feColorMatrix in="SourceAlpha" type="matrix" values="0 0 0 0 0 0 0 0 0 0 0 0 0 0 0 0 0 0 127 0" result="hardAlpha"/>
<feOffset dx="10" dy="10"/>
<feGaussianBlur stdDeviation="10"/>
<feComposite in2="hardAlpha" operator="out"/>
<feColorMatrix type="matrix" values="0 0 0 0 0 0 0 0 0 0 0 0 0 0 0 0 0 0 0.25 0"/>
<feBlend mode="normal" in2="BackgroundImageFix" result="effect1_dropShadow_36_112"/>
<feColorMatrix in="SourceAlpha" type="matrix" values="0 0 0 0 0 0 0 0 0 0 0 0 0 0 0 0 0 0 127 0" result="hardAlpha"/>
<feOffset dx="-10" dy="-10"/>
<feGaussianBlur stdDeviation="10"/>
<feComposite in2="hardAlpha" operator="out"/>
<feColorMatrix type="matrix" values="0 0 0 0 1 0 0 0 0 1 0 0 0 0 1 0 0 0 1 0"/>
<feBlend mode="normal" in2="effect1_dropShadow_36_112" result="effect2_dropShadow_36_112"/>
<feBlend mode="normal" in="SourceGraphic" in2="effect2_dropShadow_36_112" result="shape"/>
</filter>
<filter id="filter16_d_36_112" x="1197.28" y="132.156" width="46.2998" height="46.5543" filterUnits="userSpaceOnUse" color-interpolation-filters="sRGB">
<feFlood flood-opacity="0" result="BackgroundImageFix"/>
<feColorMatrix in="SourceAlpha" type="matrix" values="0 0 0 0 0 0 0 0 0 0 0 0 0 0 0 0 0 0 127 0" result="hardAlpha"/>
<feOffset dx="5" dy="4"/>
<feGaussianBlur stdDeviation="2"/>
<feComposite in2="hardAlpha" operator="out"/>
<feColorMatrix type="matrix" values="0 0 0 0 0 0 0 0 0 0 0 0 0 0 0 0 0 0 0.25 0"/>
<feBlend mode="normal" in2="BackgroundImageFix" result="effect1_dropShadow_36_112"/>
<feBlend mode="normal" in="SourceGraphic" in2="effect1_dropShadow_36_112" result="shape"/>
</filter>
<linearGradient id="paint0_linear_36_112" x1="439.396" y1="-107.068" x2="974.22" y2="543.713" gradientUnits="userSpaceOnUse">
<stop stop-color="#E7E7E7"/>
<stop offset="1" stop-color="#A2ABB5" stop-opacity="0.35"/>
</linearGradient>
<linearGradient id="paint1_linear_36_112" x1="741" y1="-102" x2="1133" y2="378" gradientUnits="userSpaceOnUse">
<stop stop-color="#A2ABB5"/>
<stop offset="0.975" stop-color="#13293D" stop-opacity="0.41"/>
</linearGradient>
<linearGradient id="paint2_linear_36_112" x1="1037" y1="-5.99999" x2="309" y2="638" gradientUnits="userSpaceOnUse">
<stop stop-color="#A2ABB5"/>
<stop offset="1" stop-color="#13293D" stop-opacity="0.1"/>
</linearGradient>
<linearGradient id="paint3_linear_36_112" x1="1151" y1="597" x2="1053" y2="355" gradientUnits="userSpaceOnUse">
<stop stop-color="#D1D1D1"/>
<stop offset="0.610416" stop-color="#B4BAC0"/>
<stop offset="1" stop-color="#A2ABB5"/>
</linearGradient>
</defs>
</svg>
